<?xml version="1.0" encoding="UTF-8"?>
<!DOCTYPE svg PUBLIC "-//W3C//DTD SVG 1.1//EN" "http://www.w3.org/Graphics/SVG/1.1/DTD/svg11.dtd">
<!-- Creator: CorelDRAW X6 -->
<svg xmlns="http://www.w3.org/2000/svg" xml:space="preserve" width="6.35mm" height="6.35mm" version="1.1" style="shape-rendering:geometricPrecision; text-rendering:geometricPrecision; image-rendering:optimizeQuality; fill-rule:evenodd; clip-rule:evenodd"
viewBox="0 0 635 635"
 xmlns:xlink="http://www.w3.org/1999/xlink">
 <defs>
  <style type="text/css">
   <![CDATA[
    .fil1 {fill:none}
    .fil0 {fill:white}
   ]]>
  </style>
 </defs>
 <g id="Слой_x0020_1">
  <metadata id="CorelCorpID_0Corel-Layer"/>
  <circle class="fil0" cx="318" cy="318" r="85"/>
  <path class="fil0" d="M238 53l-48 53 -84 0c-29,0 -53,24 -53,53l0 318c0,29 24,53 53,53l423 0c29,0 53,-24 53,-53l0 -318c0,-29 -24,-53 -53,-53l-84 0 -48 -53 -159 0zm79 397c-73,0 -132,-59 -132,-132 0,-73 59,-132 132,-132 73,0 132,59 132,132 0,73 -59,132 -132,132z"/>
  <polygon class="fil1" points="0,0 635,0 635,635 0,635 "/>
 </g>
</svg>
