<?xml version="1.0" encoding="UTF-8"?>
<!DOCTYPE svg PUBLIC "-//W3C//DTD SVG 1.1//EN" "http://www.w3.org/Graphics/SVG/1.1/DTD/svg11.dtd">
<!-- Creator: CorelDRAW X6 -->
<svg xmlns="http://www.w3.org/2000/svg" xml:space="preserve" width="11.642mm" height="11.642mm" version="1.1" style="shape-rendering:geometricPrecision; text-rendering:geometricPrecision; image-rendering:optimizeQuality; fill-rule:evenodd; clip-rule:evenodd"
viewBox="0 0 1164 1164"
 xmlns:xlink="http://www.w3.org/1999/xlink">
 <defs>
  <style type="text/css">
   <![CDATA[
    .fil0 {fill:white}
   ]]>
  </style>
 </defs>
 <g id="Слой_x0020_1">
  <metadata id="CorelCorpID_0Corel-Layer"/>
  <path class="fil0" d="M238 0c-131,0 -238,107 -238,238l0 688c0,131 107,238 238,238l688 0c131,0 238,-107 238,-238l0 -688c0,-131 -107,-238 -238,-238l-688 0zm688 132l79 0c15,0 26,12 26,26l0 79c0,15 -12,26 -26,26l-79 0c-15,0 -26,-12 -26,-26l0 -79c0,-15 12,-26 26,-26zm-344 53c141,0 265,74 335,185l114 0 0 529c0,73 -59,132 -132,132l-635 0c-73,0 -132,-59 -132,-132l0 -529 114 0c70,-111 194,-185 335,-185zm0 53c-190,0 -344,154 -344,344 0,190 154,344 344,344 190,0 344,-154 344,-344 0,-190 -154,-344 -344,-344zm0 106c131,0 238,107 238,238 0,131 -107,238 -238,238 -131,0 -238,-107 -238,-238 0,-131 107,-238 238,-238z"/>
 </g>
</svg>
