<?xml version="1.0" encoding="UTF-8"?>
<!DOCTYPE svg PUBLIC "-//W3C//DTD SVG 1.1//EN" "http://www.w3.org/Graphics/SVG/1.1/DTD/svg11.dtd">
<!-- Creator: CorelDRAW X6 -->
<svg xmlns="http://www.w3.org/2000/svg" xml:space="preserve" width="157.5mm" height="91.875mm" version="1.1" style="shape-rendering:geometricPrecision; text-rendering:geometricPrecision; image-rendering:optimizeQuality; fill-rule:evenodd; clip-rule:evenodd"
viewBox="0 0 15750 9188"
 xmlns:xlink="http://www.w3.org/1999/xlink">
 <defs>
  <style type="text/css">
   <![CDATA[
    .fil0 {fill:black}
   ]]>
  </style>
 </defs>
 <g id="Слой_x0020_1">
  <metadata id="CorelCorpID_0Corel-Layer"/>
  <path class="fil0" d="M15094 1313l-14438 0c-361,0 -656,-295 -656,-656 0,-361 295,-656 656,-656l14438 0c361,0 656,295 656,656 0,361 -295,656 -656,656zm0 3938l-14438 0c-361,0 -656,-295 -656,-656 0,-361 295,-656 656,-656l14438 0c361,0 656,295 656,656 0,361 -295,656 -656,656zm0 3938l-14438 0c-361,0 -656,-295 -656,-656 0,-361 295,-656 656,-656l14438 0c361,0 656,295 656,656 0,361 -295,656 -656,656z"/>
 </g>
</svg>
