<?xml version="1.0" encoding="UTF-8"?>
<!DOCTYPE svg PUBLIC "-//W3C//DTD SVG 1.1//EN" "http://www.w3.org/Graphics/SVG/1.1/DTD/svg11.dtd">
<!-- Creator: CorelDRAW X6 -->
<svg xmlns="http://www.w3.org/2000/svg" xml:space="preserve" width="11.113mm" height="11.113mm" version="1.1" style="shape-rendering:geometricPrecision; text-rendering:geometricPrecision; image-rendering:optimizeQuality; fill-rule:evenodd; clip-rule:evenodd"
viewBox="0 0 1111 1111"
 xmlns:xlink="http://www.w3.org/1999/xlink">
 <defs>
  <style type="text/css">
   <![CDATA[
    .fil0 {fill:white}
   ]]>
  </style>
 </defs>
 <g id="Слой_x0020_1">
  <metadata id="CorelCorpID_0Corel-Layer"/>
  <path class="fil0" d="M979 0l-847 0c-73,0 -132,59 -132,132l0 847c0,73 59,132 132,132l847 0c73,0 132,-59 132,-132l0 -847c0,-73 -59,-132 -132,-132zm-87 767l-99 0c0,0 -2,0 -6,0 -8,0 -24,-2 -44,-15 -35,-24 -68,-84 -94,-84 -2,0 -3,0 -5,1 -23,7 -30,30 -30,58 0,10 -7,14 -25,14l-51 0c-57,0 -112,-1 -175,-69 -92,-100 -177,-279 -177,-279 0,0 -5,-10 0,-16 5,-6 16,-6 20,-6 1,0 2,0 2,0l106 0c0,0 10,2 17,7 6,5 9,13 9,13 0,0 18,35 40,74 38,65 58,87 73,87 2,0 5,-1 7,-2 22,-12 15,-108 15,-108 0,0 0,-35 -11,-50 -9,-12 -25,-16 -33,-17 -6,-1 4,-15 16,-21 16,-8 44,-10 76,-10l16 0c31,1 32,4 44,7 37,9 24,43 24,125 0,26 -5,63 14,75 1,1 3,1 6,1 12,0 38,-16 80,-86 23,-40 41,-80 41,-80 0,0 4,-7 10,-11 6,-3 6,-3 13,-3l1 0c8,0 93,-1 111,-1l2 0c18,0 34,0 37,11 4,16 -13,46 -58,107 -75,100 -83,92 -21,150 59,55 71,82 74,85 25,41 -27,44 -27,44z"/>
 </g>
</svg>
